<svg xmlns="http://www.w3.org/2000/svg" viewBox="0 0 100 100" width="512" height="512" role="img" aria-label="EatSafe">
  <defs>
    <clipPath id="squircle">
      <path d="M 50 0 C 85 0, 100 15, 100 50 C 100 85, 85 100, 50 100 C 15 100, 0 85, 0 50 C 0 15, 15 0, 50 0 Z"></path>
    </clipPath>
    <filter id="glow" x="-30%" y="-50%" width="160%" height="200%">
      <feGaussianBlur stdDeviation="1.6" result="blur"></feGaussianBlur>
      <feMerge>
        <feMergeNode in="blur"></feMergeNode>
        <feMergeNode in="SourceGraphic"></feMergeNode>
      </feMerge>
    </filter>
    <linearGradient id="gline" x1="0" x2="1" y1="0" y2="0">
      <stop offset="0%" stop-color="#22C55E" stop-opacity="0.9"></stop>
      <stop offset="60%" stop-color="#4ADE80"></stop>
      <stop offset="100%" stop-color="#22C55E"></stop>
    </linearGradient>
  </defs>
  <g clip-path="url(#squircle)">
    <rect width="100" height="100" fill="#FAFAF7"></rect>
    <g fill="#1F2733">
      <rect x="18.00" y="16" width="8.31" height="68" rx="1.49"></rect>
      <rect x="29.05" y="22" width="4.15" height="56" rx="0.75"></rect>
      <rect x="35.94" y="16" width="5.54" height="68" rx="1.00"></rect>
      <rect x="44.21" y="22" width="2.77" height="56" rx="0.50"></rect>
      <rect x="49.71" y="16" width="3.32" height="68" rx="0.60"></rect>
      <rect x="55.76" y="22" width="6.92" height="56" rx="1.25"></rect>
      <rect x="65.41" y="16" width="4.43" height="68" rx="0.80"></rect>
      <rect x="72.57" y="22" width="5.54" height="56" rx="1.00"></rect>
      <rect x="80.84" y="16" width="3.88" height="68" rx="0.70"></rect>
    </g>
    <g filter="url(#glow)">
      <path d="M 20 58 L 70 58 L 76 64 L 86 50" fill="none" stroke="url(#gline)" stroke-width="4.6" stroke-linecap="round" stroke-linejoin="round"></path>
    </g>
  </g>
</svg>