<svg xmlns="http://www.w3.org/2000/svg" width="1000" height="1000" viewBox="0 0 1000 1000">
<defs>
    <linearGradient id="greenGrad" x1="0" y1="0" x2="1" y2="0">
      <stop offset="0%" stop-color="#70DC59"/>
      <stop offset="52%" stop-color="#17BF55"/>
      <stop offset="100%" stop-color="#039A55"/>
    </linearGradient>
  </defs>
<g id="eatsafe-mark">
<rect x="100.000" y="158.000" width="102.991" height="684.525" rx="12.484" fill="#232528"/>
<rect x="225.878" y="219.378" width="48.895" height="560.728" rx="12.484" fill="#232528"/>
<rect x="300.780" y="158.000" width="66.580" height="684.525" rx="12.484" fill="#232528"/>
<rect x="390.247" y="212.096" width="36.411" height="568.010" rx="12.484" fill="#232528"/>
<rect x="452.666" y="158.000" width="44.733" height="684.525" rx="12.484" fill="#232528"/>
<rect x="520.286" y="219.378" width="78.023" height="560.728" rx="12.484" fill="#232528"/>
<rect x="621.196" y="158.000" width="64.499" height="684.525" rx="12.484" fill="#232528"/>
<rect x="708.583" y="219.378" width="67.620" height="560.728" rx="12.484" fill="#232528"/>
<rect x="802.211" y="158.000" width="64.499" height="684.525" rx="12.484" fill="#232528"/>
<polyline points="124.967,532.512 654.486,532.512 731.469,599.092 877.113,442.005" fill="none" stroke="#FFFFFF" stroke-width="83.225" stroke-linecap="butt" stroke-linejoin="round"/>
<circle cx="877.113" cy="442.005" r="41.612" fill="#FFFFFF"/>
<polyline points="124.967,532.512 654.486,532.512 731.469,599.092 877.113,442.005" fill="none" stroke="url(#greenGrad)" stroke-width="62.419" stroke-linecap="butt" stroke-linejoin="round"/>
<circle cx="877.113" cy="442.005" r="31.209" fill="#039A55"/>
</g>
</svg>
